<svg xmlns="http://www.w3.org/2000/svg" width="128" height="128" viewBox="0 0 128 128">
<title>MineGuard shield and miner helmet mark</title>
<rect width="128" height="128" rx="20" fill="#F3F6F8"/>

    <path d="M64 7 L108 23 V58 C108 85 91 106 64 121 C37 106 20 85 20 58 V23 Z"
          fill="#182B3A" />
    <path d="M37 59 C38 40 49 29 64 29 C79 29 90 40 91 59 L91 64 L37 64 Z"
          fill="#FFFFFF"/>
    <path d="M33 59 H95 C98 59 100 62 100 65 C100 68 98 70 95 70 H33 C30 70 28 68 28 65 C28 62 30 59 33 59 Z"
          fill="#FFFFFF"/>
    <path d="M47 39 Q64 31 81 39" stroke="#182B3A" stroke-width="3" fill="none" stroke-linecap="round"/>
    <circle cx="80" cy="48" r="6.5" fill="#E7B64A" stroke="#182B3A" stroke-width="2"/>
    <path d="M34 88 L51 75 L63 85 L75 78 L94 95" fill="none" stroke="#FFFFFF" stroke-width="5" stroke-linecap="round" stroke-linejoin="round"/>
    
</svg>